<svg width="435" height="481" viewBox="0 0 435 481" fill="none" xmlns="http://www.w3.org/2000/svg">
<path fill-rule="evenodd" clip-rule="evenodd" d="M49.4336 468.667H315.042V469.9H49.4336V468.667Z" fill="#3FB1B5"/>
<path fill-rule="evenodd" clip-rule="evenodd" d="M296.443 481H4.08301V480.046H296.443V481Z" fill="#66B0F0"/>
<path d="M295.153 4.9209V52.7702C295.153 62.1411 287.508 69.7535 278.097 69.7535H224.816C234.227 69.7535 241.872 62.1643 241.872 52.7702V4.9209H295.153Z" fill="white"/>
<path fill-rule="evenodd" clip-rule="evenodd" d="M241.291 4.34277H295.733V52.7706C295.733 62.4609 287.829 70.3323 278.097 70.3323H224.816V69.1754C233.907 69.1754 241.291 61.8446 241.291 52.7706V4.34277ZM231.126 69.1754H278.097C287.187 69.1754 294.572 61.822 294.572 52.7706V5.49967H242.453V52.7706C242.453 60.2659 237.746 66.6501 231.126 69.1754Z" fill="#66B0F0"/>
<path d="M270.545 0.293945H266.246V10.4978H270.545V0.293945Z" fill="#FFCF2D"/>
<path d="M279.654 23.1086C279.05 23.1086 278.446 22.8773 277.958 22.4376L276.169 20.8643C275.611 20.3784 274.867 20.3784 274.31 20.8643L272.614 22.3682C271.614 23.2475 270.22 23.2475 269.198 22.3682L267.641 21.0031C267.083 20.5172 266.34 20.5172 265.782 21.0031L264.341 22.2757C263.342 23.1549 261.948 23.1549 260.926 22.2757L259.741 21.2345C259.183 20.7486 258.439 20.7486 257.882 21.2345L256.604 22.3682C255.605 23.2475 254.21 23.2475 253.188 22.3682L252.003 21.327C251.445 20.8411 250.702 20.8411 250.144 21.327C249.912 21.5353 249.54 21.5121 249.331 21.2807C249.122 21.0494 249.145 20.6791 249.377 20.4709C250.376 19.5917 251.771 19.5917 252.793 20.4709L253.978 21.5121C254.536 21.998 255.279 21.998 255.837 21.5121L257.115 20.3784C258.114 19.4991 259.508 19.4991 260.531 20.3784L261.716 21.4196C262.273 21.9055 263.017 21.9055 263.575 21.4196L265.015 20.147C266.014 19.2677 267.409 19.2677 268.431 20.147L269.988 21.5121C270.546 21.998 271.289 21.998 271.847 21.5121L273.543 20.0081C274.542 19.1289 275.936 19.1289 276.959 20.0081L278.748 21.5815C279.306 22.0674 280.049 22.0674 280.607 21.5815L282.466 19.9387C283.465 19.0595 284.859 19.0595 285.881 19.9387C286.114 20.147 286.137 20.5172 285.928 20.7486C285.719 20.9799 285.347 21.0031 285.115 20.7948C284.557 20.3089 283.813 20.3089 283.256 20.7948L281.397 22.4376C280.839 22.8773 280.258 23.1086 279.654 23.1086Z" fill="#66B0F0"/>
<path d="M279.654 32.6174C279.05 32.6174 278.446 32.386 277.958 31.9464L276.169 30.373C275.611 29.8871 274.867 29.8871 274.31 30.373L272.614 31.877C271.614 32.7562 270.22 32.7562 269.198 31.877L267.641 30.5119C267.083 30.026 266.34 30.026 265.782 30.5119L264.341 31.7844C263.342 32.6637 261.948 32.6637 260.926 31.7844L259.741 30.7432C259.183 30.2573 258.439 30.2573 257.882 30.7432L256.604 31.877C255.605 32.7562 254.21 32.7562 253.188 31.877L252.003 30.8358C251.445 30.3499 250.702 30.3499 250.144 30.8358C249.912 31.044 249.54 31.0209 249.331 30.7895C249.122 30.5581 249.145 30.1879 249.377 29.9797C250.376 29.1004 251.771 29.1004 252.793 29.9797L253.978 31.0209C254.536 31.5068 255.279 31.5068 255.837 31.0209L257.115 29.8871C258.114 29.0079 259.508 29.0079 260.531 29.8871L261.716 30.9283C262.273 31.4142 263.017 31.4142 263.575 30.9283L265.015 29.6558C266.014 28.7765 267.409 28.7765 268.431 29.6558L269.988 31.0209C270.546 31.5068 271.289 31.5068 271.847 31.0209L273.543 29.5169C274.542 28.6377 275.936 28.6377 276.959 29.5169L278.748 31.0903C279.306 31.5762 280.049 31.5762 280.607 31.0903L282.466 29.4475C283.465 28.5683 284.859 28.5683 285.881 29.4475C286.114 29.6558 286.137 30.026 285.928 30.2573C285.719 30.4887 285.347 30.5119 285.115 30.3036C284.557 29.8177 283.813 29.8177 283.256 30.3036L281.397 31.9464C280.839 32.4091 280.258 32.6174 279.654 32.6174Z" fill="#66B0F0"/>
<path d="M279.654 42.1272C279.05 42.1272 278.446 41.8958 277.958 41.4562L276.169 39.8828C275.611 39.3969 274.867 39.3969 274.31 39.8828L272.614 41.3868C271.614 42.266 270.22 42.266 269.198 41.3868L267.641 40.0216C267.083 39.5357 266.34 39.5357 265.782 40.0216L264.341 41.2942C263.342 42.1734 261.948 42.1734 260.926 41.2942L259.741 40.253C259.183 39.7671 258.439 39.7671 257.882 40.253L256.604 41.3868C255.605 42.266 254.21 42.266 253.188 41.3868L252.003 40.3456C251.445 39.8597 250.702 39.8597 250.144 40.3456C249.912 40.5538 249.54 40.5307 249.331 40.2993C249.122 40.0679 249.145 39.6977 249.377 39.4895C250.376 38.6102 251.771 38.6102 252.793 39.4895L253.978 40.5307C254.536 41.0166 255.279 41.0166 255.837 40.5307L257.115 39.3969C258.114 38.5177 259.508 38.5177 260.531 39.3969L261.716 40.4381C262.273 40.924 263.017 40.924 263.575 40.4381L265.015 39.1655C266.014 38.2863 267.409 38.2863 268.431 39.1655L269.988 40.5307C270.546 41.0166 271.289 41.0166 271.847 40.5307L273.543 39.0267C274.542 38.1475 275.936 38.1475 276.959 39.0267L278.748 40.6001C279.306 41.086 280.049 41.086 280.607 40.6001L282.466 38.9573C283.465 38.078 284.859 38.078 285.881 38.9573C286.114 39.1655 286.137 39.5357 285.928 39.7671C285.719 39.9985 285.347 40.0216 285.115 39.8134C284.557 39.3275 283.813 39.3275 283.256 39.8134L281.397 41.4562C280.839 41.9189 280.258 42.1272 279.654 42.1272Z" fill="#66B0F0"/>
<path d="M279.654 51.6594C279.05 51.6594 278.446 51.428 277.958 50.9884L276.169 49.415C275.611 48.9291 274.867 48.9291 274.31 49.415L272.614 50.919C271.614 51.7982 270.22 51.7982 269.198 50.919L267.641 49.5539C267.083 49.068 266.34 49.068 265.782 49.5539L264.341 50.8264C263.342 51.7057 261.948 51.7057 260.926 50.8264L259.741 49.7852C259.183 49.2993 258.439 49.2993 257.882 49.7852L256.604 50.919C255.605 51.7982 254.21 51.7982 253.188 50.919L252.003 49.8778C251.445 49.3919 250.702 49.3919 250.144 49.8778C249.912 50.086 249.54 50.0629 249.331 49.8315C249.122 49.6001 249.145 49.2299 249.377 49.0217C250.376 48.1425 251.771 48.1425 252.793 49.0217L253.978 50.0629C254.536 50.5488 255.279 50.5488 255.837 50.0629L257.115 48.9291C258.114 48.0499 259.508 48.0499 260.531 48.9291L261.716 49.9703C262.273 50.4562 263.017 50.4562 263.575 49.9703L265.015 48.6978C266.014 47.8185 267.409 47.8185 268.431 48.6978L269.988 50.0629C270.546 50.5488 271.289 50.5488 271.847 50.0629L273.543 48.5589C274.542 47.6797 275.936 47.6797 276.959 48.5589L278.748 50.1323C279.306 50.6182 280.049 50.6182 280.607 50.1323L282.466 48.4895C283.465 47.6103 284.859 47.6103 285.881 48.4895C286.114 48.6978 286.137 49.068 285.928 49.2993C285.719 49.5307 285.347 49.5539 285.115 49.3456C284.557 48.8597 283.813 48.8597 283.256 49.3456L281.397 50.9884C280.839 51.428 280.258 51.6594 279.654 51.6594Z" fill="#66B0F0"/>
<path d="M350.011 4.91992H312.74V42.0333H350.011V4.91992Z" fill="#FFCF2D"/>
<path d="M320.931 3.33727L318.232 0.00488281L308.391 7.94256L311.09 11.2749L320.931 3.33727Z" fill="#FE5244"/>
<path d="M351.945 11.2562L354.647 7.92676L344.798 -2.5395e-05L342.095 3.32937L351.945 11.2562Z" fill="#FE5244"/>
<path d="M342.135 13.7139H319.526V15.1022H342.135V13.7139Z" fill="white"/>
<path d="M342.135 19.7061H319.526V21.0943H342.135V19.7061Z" fill="white"/>
<path d="M342.135 25.7217H319.526V27.1099H342.135V25.7217Z" fill="white"/>
<path d="M342.135 31.7148H319.526V33.1031H342.135V31.7148Z" fill="white"/>
<path d="M378.457 402.354C377.917 402.19 377.618 402.109 377.618 402.109L371.085 424.006L346.494 417.402C346.295 417.218 346.195 417.116 346.195 417.116C346.195 417.116 246.612 337.234 241.378 298.898C236.164 260.562 277.875 224.188 277.875 224.188C277.875 224.188 366.83 396.281 377.837 401.904C378.057 402.027 378.277 402.17 378.457 402.354Z" fill="#E57281"/>
<path d="M298.931 264.446C295.814 281.519 284.867 316.093 273.541 349.542C256.76 331.039 243.216 312.371 241.378 298.877C238.062 274.587 253.624 251.054 265.45 237.11C269.785 233.553 274.459 230.281 279.513 227.357C282.61 233.307 289.781 247.088 298.931 264.446Z" fill="#9A3B82"/>
<path d="M434.352 417.095L397.775 441.119L387.167 439.484L377.399 445.822L380.555 452.446L364.474 463.017C343.159 443.164 346.175 417.341 346.175 417.341L371.066 424.026L377.598 402.129C377.598 402.129 399.952 408.815 416.453 408.242C432.993 407.67 434.352 417.095 434.352 417.095Z" fill="white"/>
<path fill-rule="evenodd" clip-rule="evenodd" d="M377.198 401.371L377.766 401.541L377.598 402.13C377.766 401.541 377.766 401.541 377.766 401.541L377.781 401.546L377.829 401.56C377.871 401.572 377.934 401.591 378.017 401.615C378.183 401.663 378.43 401.734 378.75 401.825C379.39 402.006 380.324 402.263 381.497 402.571C383.843 403.187 387.143 404.003 390.957 404.8C398.595 406.397 408.253 407.914 416.432 407.63C424.817 407.34 429.46 409.583 432.012 412.005C433.282 413.211 434.013 414.441 434.427 415.38C434.633 415.849 434.761 416.245 434.838 416.529C434.876 416.67 434.902 416.784 434.919 416.866C434.927 416.906 434.933 416.939 434.937 416.962C434.939 416.974 434.941 416.984 434.942 416.991L434.943 417.001L434.944 417.004L434.944 417.006C434.944 417.006 434.944 417.007 434.351 417.096L434.944 417.007L435 417.399L397.908 441.761L387.299 440.125L378.172 446.047L381.327 452.668L364.41 463.788L364.07 463.471C353.3 453.441 348.676 441.897 346.745 432.866C345.781 428.351 345.488 424.462 345.437 421.698C345.412 420.316 345.447 419.214 345.488 418.456C345.509 418.076 345.532 417.782 345.549 417.582C345.558 417.482 345.565 417.405 345.571 417.352C345.573 417.326 345.576 417.306 345.577 417.292L345.579 417.276L345.579 417.271L345.58 417.27C345.58 417.269 345.58 417.269 346.175 417.342L345.58 417.269L345.661 416.569L370.661 423.284L377.198 401.371ZM346.71 418.119C346.702 418.24 346.693 418.375 346.685 418.524C346.645 419.255 346.611 420.326 346.636 421.675C346.685 424.373 346.971 428.181 347.916 432.604C349.786 441.352 354.234 452.499 364.538 462.246L379.782 452.226L376.624 445.598L387.035 438.844L397.64 440.479L433.671 416.814C433.608 416.586 433.503 416.266 433.334 415.885C432.977 415.074 432.334 413.984 431.197 412.905C428.934 410.757 424.628 408.574 416.472 408.856C408.15 409.145 398.381 407.605 390.717 406.002C386.88 405.2 383.56 404.379 381.2 403.76C380.019 403.45 379.078 403.19 378.431 403.007C378.268 402.961 378.124 402.92 377.999 402.884L371.471 424.77L346.71 418.119Z" fill="#FE5244"/>
<path fill-rule="evenodd" clip-rule="evenodd" d="M393.3 404.25C393.25 403.794 393.175 403.152 393.074 402.387C392.868 400.833 392.553 398.768 392.115 396.73C391.679 394.703 391.113 392.661 390.393 391.177C390.034 390.439 389.614 389.789 389.112 389.355C388.591 388.905 387.949 388.666 387.234 388.86L387.232 388.86L387.231 388.861C386.516 389.058 386.053 389.61 385.779 390.274C385.508 390.929 385.393 391.747 385.382 392.625C385.359 394.389 385.755 396.575 386.402 398.644C387.048 400.71 387.965 402.722 389.027 404.117C389.556 404.813 390.15 405.392 390.797 405.73C391.462 406.077 392.196 406.173 392.928 405.866C394.165 405.347 395.329 404.158 396.36 402.775C397.405 401.375 398.371 399.696 399.192 398.092C400.014 396.485 400.698 394.938 401.176 393.794C401.416 393.222 401.604 392.749 401.732 392.419C401.797 392.254 401.846 392.124 401.88 392.035C401.896 391.991 401.909 391.957 401.918 391.934L401.928 391.907L401.931 391.898L401.931 391.898C401.931 391.897 401.931 391.897 401.37 391.681C400.809 391.465 400.809 391.465 400.809 391.465L400.809 391.466L400.809 391.467L400.807 391.473L400.798 391.497C400.79 391.518 400.778 391.551 400.762 391.593C400.73 391.678 400.682 391.804 400.619 391.965C400.494 392.287 400.309 392.75 400.074 393.312C399.604 394.437 398.934 395.953 398.13 397.523C397.325 399.096 396.395 400.707 395.408 402.031C394.698 402.983 393.986 403.747 393.3 404.25ZM392.155 404.816C391.9 404.847 391.633 404.789 391.342 404.637C390.91 404.412 390.445 403.984 389.972 403.363C389.029 402.123 388.165 400.259 387.543 398.27C386.922 396.282 386.56 394.232 386.58 392.641C386.59 391.842 386.696 391.202 386.882 390.753C387.064 390.313 387.293 390.114 387.541 390.045C387.789 389.979 388.038 390.033 388.339 390.292C388.659 390.569 388.991 391.048 389.319 391.723C389.972 393.068 390.513 394.99 390.944 396.994C391.373 398.987 391.683 401.016 391.886 402.551C391.988 403.318 392.062 403.959 392.111 404.408C392.129 404.57 392.143 404.708 392.155 404.816Z" fill="#FE5244"/>
<path fill-rule="evenodd" clip-rule="evenodd" d="M433.15 414.344L398.34 436.588L386.787 434.686L374.662 442.103L349.98 441.712L349.999 440.485L374.34 440.871L386.547 433.404L398.086 435.304L432.515 413.304L433.15 414.344Z" fill="#FE5244"/>
<path fill-rule="evenodd" clip-rule="evenodd" d="M384.843 414.841L387.12 403.984L388.292 404.242L386.015 415.099L384.843 414.841Z" fill="#FE5244"/>
<path fill-rule="evenodd" clip-rule="evenodd" d="M389.797 416.068L392.074 405.211L393.246 405.468L390.969 416.325L389.797 416.068Z" fill="#FE5244"/>
<path fill-rule="evenodd" clip-rule="evenodd" d="M394.972 416.947L397.249 406.09L398.421 406.347L396.144 417.204L394.972 416.947Z" fill="#FE5244"/>
<path d="M269.426 215.827C269.426 215.827 284.069 222.82 284.069 248.459C284.069 273.239 228.175 424.989 228.175 424.989L210.975 439.914L193.516 420.347C202.046 412.046 177.554 261.974 269.426 215.827Z" fill="#E57281"/>
<path d="M267.868 468.988L224.4 469.029L216.329 461.791L204.763 461.73L203.924 469.05L186.884 469.07C177.614 439.546 193.596 420.327 193.596 420.327L210.935 439.873L228.255 424.968C228.255 424.968 243.277 443.002 257.461 451.63C271.684 460.278 267.868 468.988 267.868 468.988Z" fill="white"/>
<path fill-rule="evenodd" clip-rule="evenodd" d="M193.581 419.398L210.991 439.024L228.325 424.107L228.711 424.571L228.255 424.969C228.711 424.571 228.711 424.57 228.711 424.571L228.721 424.583L228.753 424.621C228.781 424.655 228.824 424.705 228.88 424.772C228.992 424.905 229.16 425.101 229.378 425.355C229.814 425.862 230.454 426.598 231.266 427.507C232.891 429.327 235.204 431.843 237.96 434.627C243.478 440.204 250.738 446.827 257.767 451.103C264.977 455.487 267.705 459.946 268.578 463.399C269.013 465.118 268.98 466.56 268.835 467.581C268.762 468.091 268.662 468.496 268.577 468.777C268.535 468.918 268.496 469.029 268.468 469.106C268.46 469.127 268.453 469.144 268.447 469.16C268.442 469.175 268.436 469.187 268.432 469.198C268.428 469.209 268.424 469.218 268.421 469.225L268.417 469.234L268.415 469.238C268.415 469.239 268.415 469.239 267.868 468.988L268.415 469.239L268.256 469.601L224.174 469.643L216.102 462.404L205.295 462.346L204.456 469.663L186.447 469.684L186.313 469.258C181.633 454.351 183.325 442.029 186.196 433.429C187.631 429.132 189.36 425.766 190.732 423.471C191.418 422.324 192.016 421.443 192.444 420.847C192.658 420.55 192.83 420.323 192.949 420.169C193.008 420.092 193.055 420.034 193.087 419.994C193.103 419.974 193.116 419.958 193.124 419.948L193.135 419.935L193.137 419.932L193.138 419.93C193.139 419.93 193.139 419.93 193.595 420.327L193.139 419.93L193.581 419.398ZM193.627 421.276C193.561 421.365 193.489 421.464 193.41 421.574C193 422.145 192.421 422.996 191.754 424.112C190.42 426.343 188.732 429.628 187.331 433.826C184.556 442.135 182.897 454.031 187.322 468.456L203.39 468.437L204.229 461.114L216.555 461.179L224.624 468.416L267.444 468.375C267.51 468.148 267.59 467.819 267.649 467.404C267.775 466.522 267.807 465.246 267.418 463.706C266.643 460.642 264.167 456.421 257.154 452.157C249.999 447.804 242.656 441.097 237.118 435.5C234.345 432.698 232.016 430.166 230.381 428.335C229.563 427.419 228.919 426.678 228.478 426.165C228.369 426.038 228.272 425.925 228.188 425.827L210.879 440.723L193.627 421.276Z" fill="#FE5244"/>
<path fill-rule="evenodd" clip-rule="evenodd" d="M248.27 418.674C249.16 418.549 250.018 418.774 250.762 419.434C251.5 420.091 251.84 420.909 251.837 421.807C251.835 422.675 251.515 423.576 251.031 424.453C250.065 426.207 248.326 428.074 246.486 429.762C244.635 431.46 242.636 433.017 241.103 434.147C240.395 434.67 239.785 435.102 239.332 435.417C239.531 435.436 239.773 435.445 240.061 435.441C240.781 435.429 241.688 435.335 242.725 435.176C244.797 434.859 247.325 434.296 249.785 433.683C252.242 433.07 254.617 432.411 256.38 431.905C257.261 431.652 257.988 431.437 258.494 431.285C258.747 431.21 258.946 431.15 259.08 431.109C259.147 431.088 259.199 431.073 259.233 431.062L259.285 431.046C259.285 431.046 259.285 431.046 259.458 431.634C259.63 432.221 259.63 432.221 259.63 432.221L259.577 432.238C259.557 432.244 259.532 432.251 259.502 432.26C259.478 432.268 259.451 432.276 259.421 432.285C259.285 432.326 259.085 432.387 258.83 432.463C258.32 432.615 257.589 432.831 256.704 433.086C254.933 433.595 252.543 434.258 250.068 434.875C247.596 435.491 245.027 436.064 242.902 436.389C241.841 436.552 240.875 436.655 240.08 436.667C239.32 436.679 238.598 436.614 238.114 436.342C237.455 435.972 237.333 435.168 237.356 434.494C237.381 433.763 237.584 432.862 237.9 431.889C238.537 429.933 239.685 427.541 241.065 425.342C242.44 423.151 244.08 421.096 245.722 419.859C246.544 419.241 247.407 418.795 248.27 418.674ZM238.557 434.473C239.009 434.159 239.65 433.707 240.402 433.152C241.917 432.035 243.879 430.506 245.686 428.849C247.504 427.181 249.121 425.423 249.987 423.851C250.421 423.065 250.637 422.378 250.639 421.804C250.64 421.261 250.451 420.783 249.976 420.361C249.505 419.943 248.997 419.81 248.433 419.889C247.844 419.972 247.168 420.293 246.433 420.847C244.961 421.955 243.415 423.867 242.073 426.005C240.736 428.136 239.637 430.436 239.038 432.277C238.748 433.167 238.586 433.917 238.557 434.473Z" fill="#FE5244"/>
<path fill-rule="evenodd" clip-rule="evenodd" d="M184.266 443.479L184.905 442.441L205.155 455.514H219.363L228.332 463.222H268.207V464.449H227.896L218.926 456.741H204.808L184.266 443.479Z" fill="#FE5244"/>
<path fill-rule="evenodd" clip-rule="evenodd" d="M226.273 438.642L233.944 430.791L234.792 431.658L227.121 439.51L226.273 438.642Z" fill="#FE5244"/>
<path fill-rule="evenodd" clip-rule="evenodd" d="M229.788 442.424L237.459 434.573L238.307 435.441L230.636 443.292L229.788 442.424Z" fill="#FE5244"/>
<path fill-rule="evenodd" clip-rule="evenodd" d="M233.665 446.023L241.336 438.172L242.184 439.039L234.513 446.89L233.665 446.023Z" fill="#FE5244"/>
<path d="M269.425 215.827C234.886 233.165 216.787 265.224 207.218 298.898H102.402C75.5731 298.898 55.5766 273.566 61.2299 246.72L68.9209 210.163H251.167C257.919 210.163 264.191 212.249 269.425 215.827Z" fill="#FE5244"/>
<path d="M191.596 250.871L229.331 250.789L223.738 260.174L191.596 250.871Z" fill="#E57281"/>
<path fill-rule="evenodd" clip-rule="evenodd" d="M108.676 209.563C109 209.632 109.208 209.957 109.14 210.289L107.682 217.444C107.682 217.444 107.682 217.444 107.682 217.444C104.244 234.341 116.825 250.196 133.684 250.196H229.005C239.061 235.941 252.185 223.697 269.36 215.072C269.657 214.922 270.016 215.048 270.162 215.352C270.308 215.656 270.185 216.024 269.888 216.173C252.806 224.752 239.775 236.949 229.798 251.167L229.619 251.423H133.684C116.064 251.423 102.915 234.851 106.509 217.194L107.967 210.038C108.035 209.706 108.352 209.494 108.676 209.563Z" fill="white"/>
<path fill-rule="evenodd" clip-rule="evenodd" d="M191.021 250.682C191.113 250.356 191.445 250.168 191.763 250.261L224.252 259.804L223.856 260.487C216.875 272.517 211.739 285.654 207.934 299.049C207.842 299.375 207.51 299.562 207.192 299.467C206.874 299.373 206.691 299.032 206.784 298.707C210.538 285.489 215.588 272.495 222.431 260.545L191.432 251.44C191.114 251.347 190.93 251.007 191.021 250.682Z" fill="white"/>
<path d="M44.4293 111.963L63.6267 189.044H27.8088C6.95327 189.044 -6.47096 166.37 3.19769 147.457L30.7054 93.6232C38.4962 78.391 53.8981 68.8428 70.6984 68.8428H77.1908C55.1367 68.8223 38.9757 90.0861 44.4293 111.963Z" fill="#3FB1B5"/>
<path d="M265.489 91.9659C276.776 91.9659 286.165 90.4325 288.442 88.2857L253.424 165.98C247.091 180.047 233.327 189.043 218.205 189.043C213.77 189.043 209.415 188.266 205.3 186.774C201.185 185.281 197.31 183.093 193.854 180.231L171.78 161.993C171.78 161.993 169.582 175.222 153.901 178.595V210.123H68.9005L44.4292 111.942C38.9757 90.0644 55.1367 68.7803 77.1907 68.7803H136.701C141.955 68.7803 147.129 69.455 152.123 70.7635C165.787 74.3211 178.052 82.5404 186.722 94.3172L215.808 133.819L241.937 87.0793C241.937 87.1202 241.917 87.1816 241.917 87.2225C241.937 89.9418 252.505 91.9659 265.489 91.9659Z" fill="#3FB1B5"/>
<path fill-rule="evenodd" clip-rule="evenodd" d="M44.0853 111.367C44.4065 111.285 44.7315 111.486 44.811 111.815L63.609 189.509C63.6885 189.838 63.4926 190.17 63.1713 190.252C62.85 190.333 62.5251 190.133 62.4455 189.804L43.6476 112.11C43.568 111.781 43.764 111.448 44.0853 111.367Z" fill="white"/>
<path fill-rule="evenodd" clip-rule="evenodd" d="M154.869 144.392C155.11 144.16 155.489 144.172 155.716 144.419L172.416 162.616C172.643 162.863 172.631 163.251 172.39 163.483C172.148 163.715 171.769 163.703 171.543 163.456L154.842 145.259C154.616 145.012 154.627 144.624 154.869 144.392Z" fill="white"/>
<path d="M288.963 87.1405L288.444 88.2855C286.166 90.4527 276.777 91.9657 265.491 91.9657C252.506 91.9657 241.938 89.9416 241.938 87.2632C241.938 87.2223 241.938 87.1609 241.958 87.12C242.318 84.5029 252.746 82.2539 265.511 82.2539C278.256 82.2539 288.604 84.5029 288.963 87.1405C288.963 87.12 288.963 87.12 288.963 87.1405Z" fill="#FE5244"/>
<path d="M299.429 47.8846C299.429 49.05 299.15 50.195 298.63 51.1969C298.111 52.1987 297.352 53.0779 296.413 53.7526L295.953 54.0797L292.378 73.6055C291.798 76.7746 289.96 79.5757 287.304 81.3136L282.409 84.5032L278.534 87.0385L276.736 91.4343C273.4 91.7819 269.584 91.9864 265.509 91.9864C261.394 91.9864 257.519 91.7819 254.143 91.4139V61.1335C254.143 59.825 254.422 58.5369 254.962 57.3511L261.474 42.998C261.474 42.998 268.586 44.7973 265.309 53.7321C262.333 61.8492 269.125 59.7637 272.94 58.312C276.356 57.0035 291.279 49.234 297.112 46.3921C298.191 45.8605 299.429 46.6783 299.429 47.8846Z" fill="#E57281"/>
<path fill-rule="evenodd" clip-rule="evenodd" d="M293.289 65.6817C293.56 65.7336 293.738 66.0006 293.688 66.2781C293.083 69.5865 291.164 72.4888 288.392 74.3025L279.622 80.0276C279.389 80.1794 279.08 80.1095 278.932 79.8715C278.784 79.6335 278.852 79.3175 279.084 79.1657L287.854 73.4411C290.395 71.7789 292.152 69.1199 292.706 66.0901C292.757 65.8126 293.017 65.6297 293.289 65.6817Z" fill="#9A3B82"/>
<path fill-rule="evenodd" clip-rule="evenodd" d="M294.727 57.4004C294.998 57.4523 295.177 57.7194 295.126 57.9968C294.521 61.3053 292.603 64.2076 289.83 66.0212L281.06 71.7463C280.827 71.8981 280.519 71.8282 280.37 71.5902C280.222 71.3522 280.29 71.0362 280.523 70.8844L289.292 65.1598C289.292 65.1597 289.292 65.1597 289.292 65.1596C289.292 65.1596 289.292 65.1596 289.292 65.1596C291.833 63.4974 293.59 60.8385 294.144 57.8088C294.195 57.5314 294.456 57.3485 294.727 57.4004Z" fill="#9A3B82"/>
<path fill-rule="evenodd" clip-rule="evenodd" d="M295.735 54.0303C295.882 54.2687 295.813 54.5845 295.581 54.7358L281.477 63.8956C281.244 64.0468 280.936 63.9762 280.788 63.7379C280.64 63.4995 280.709 63.1837 280.942 63.0324L295.045 53.8726C295.278 53.7213 295.587 53.792 295.735 54.0303Z" fill="#9A3B82"/>
<path d="M283.169 83.9913L282.39 84.5025L278.514 87.0378L276.716 91.4336C273.38 91.7812 269.565 91.9857 265.49 91.9857C261.374 91.9857 257.499 91.7812 254.123 91.4132V82.9077C257.499 82.4988 261.374 82.2739 265.49 82.2739C272.541 82.2534 278.854 82.9282 283.169 83.9913Z" fill="#9A3B82"/>
<path d="M150.266 70.2934C147.37 74.2804 136.583 83.665 100.265 83.665C53.5401 83.665 83.445 68.8622 83.445 68.8622L103.262 34.9834L124.517 48.3346V59.0686C124.517 64.4868 128.812 68.8622 134.085 68.8622H135.464C140.418 68.8418 145.532 69.0667 150.266 70.2934Z" fill="#E57281"/>
<path d="M124.498 48.314V51.0538L83.4258 68.8417L103.243 34.9629L124.498 48.314Z" fill="#9A3B82"/>
<path d="M125.613 49.6419H130.128C134.283 49.6419 137.659 46.1865 137.659 41.9337V16.1924H110.711V34.3892C110.711 42.8129 117.383 49.6419 125.613 49.6419Z" fill="#E57281"/>
<path fill-rule="evenodd" clip-rule="evenodd" d="M133.456 38.1397L133.456 38.1393L133.456 38.1386L133.455 38.1378C133.455 38.1376 133.455 38.1377 133.455 38.138C133.455 38.138 133.455 38.138 133.455 38.138M133.455 38.138C133.455 38.1381 133.455 38.1382 133.456 38.1384C133.456 38.1397 133.458 38.1428 133.461 38.1476C133.467 38.1572 133.477 38.1737 133.492 38.196C133.522 38.2406 133.57 38.3083 133.637 38.3915C133.771 38.5583 133.979 38.7852 134.27 39.0132C134.846 39.4655 135.756 39.9301 137.08 39.9301C137.356 39.9301 137.579 40.1589 137.579 40.4412C137.579 40.7235 137.356 40.9524 137.08 40.9524C135.507 40.9524 134.389 40.3946 133.662 39.8246C133.301 39.5415 133.039 39.2572 132.865 39.0406C132.778 38.9321 132.713 38.8401 132.668 38.7729C132.645 38.7393 132.628 38.7118 132.615 38.6915C132.609 38.6813 132.604 38.673 132.6 38.6665L132.596 38.6583L132.594 38.6553L132.593 38.6541L132.593 38.6535C132.593 38.6533 132.592 38.653 133.025 38.3966" fill="#73325A"/>
<path d="M134.462 32.2023C134.991 32.2023 135.421 31.351 135.421 30.3009C135.421 29.2507 134.991 28.3994 134.462 28.3994C133.932 28.3994 133.503 29.2507 133.503 30.3009C133.503 31.351 133.932 32.2023 134.462 32.2023Z" fill="#73325A"/>
<path d="M115.846 18.8715C115.846 18.8715 138.08 32.6111 145.312 20.6503C151.664 10.1615 123.517 4.7638 113.689 4.72291C103.001 4.68202 88.838 9.5277 89.0777 25.6186C89.2775 38.8675 89.8168 58.2503 82.1458 54.8767C54.8579 42.8954 30.6065 55.4083 30.5265 79.2482C30.4466 103.088 57.4749 105.317 58.1541 99.1625C58.8532 93.0287 41.3738 94.4395 43.731 110.367C46.0683 126.294 56.496 146.208 80.308 146.208C109.074 146.229 127.393 107.464 109.594 103.517C95.9496 100.491 123.497 127.439 131.668 99.4283C140.457 69.2706 108.695 59.3952 107.916 41.1779C107.136 22.9607 115.846 18.8715 115.846 18.8715Z" fill="#FFCF2D"/>
<path fill-rule="evenodd" clip-rule="evenodd" d="M97.0142 8.6929C101.968 5.40393 108.287 4.1915 113.691 4.21217C118.659 4.23284 128.208 5.60146 135.733 8.28639C139.486 9.62557 142.807 11.3162 144.79 13.3849C145.787 14.4259 146.471 15.589 146.673 16.8754C146.877 18.1699 146.582 19.5244 145.737 20.9196C143.832 24.0696 140.935 25.5175 137.719 25.926C134.521 26.3322 130.988 25.716 127.727 24.7371C124.459 23.7563 121.427 22.3997 119.214 21.2909C118.107 20.736 117.203 20.2419 116.574 19.8861C116.26 19.7082 116.015 19.5647 115.848 19.4654C115.843 19.4629 115.839 19.4605 115.835 19.458C115.804 19.4764 115.77 19.4969 115.734 19.5198C115.515 19.6561 115.196 19.8738 114.813 20.1924C114.046 20.8291 113.018 21.8699 112.009 23.4708C109.993 26.6675 108.029 32.1356 108.415 41.156C108.603 45.5556 110.662 49.4866 113.589 53.4145C115.051 55.3766 116.719 57.3246 118.464 59.3224C118.761 59.6625 119.06 60.0041 119.36 60.3474C120.822 62.0164 122.319 63.7255 123.764 65.4985C127.249 69.7749 130.466 74.4644 132.249 80.0062C134.036 85.56 134.372 91.9387 132.147 99.5748C130.076 106.673 126.743 110.397 123.041 111.933C121.085 112.745 119.059 112.931 117.115 112.709C117.198 116.868 115.644 121.818 112.842 126.613C106.829 136.902 94.9148 146.73 80.3081 146.72C68.2476 146.72 59.5528 141.669 53.5888 134.595C47.6369 127.535 44.4164 118.477 43.2375 110.443C42.6652 106.575 43.2303 103.502 44.4518 101.155C44.2586 101.082 44.0653 101.007 43.8722 100.929C36.8857 98.0983 29.9867 91.4146 30.0275 79.2468C30.0681 67.1272 36.2645 57.8618 45.9193 53.1682C55.5588 48.482 68.5964 48.3716 82.3431 54.4073L82.3434 54.4075C83.2226 54.7941 83.9273 54.8315 84.5039 54.6446C85.0845 54.4565 85.6093 54.017 86.0801 53.3053C87.0356 51.8607 87.6706 49.4433 88.0687 46.4133C88.8145 40.7391 88.6972 33.2261 88.5973 26.8266C88.591 26.422 88.5847 26.0219 88.5788 25.6268C88.4561 17.3953 92.0317 12.0007 97.0142 8.6929ZM45.41 101.491C44.2522 103.633 43.6677 106.524 44.2252 110.291L44.2253 110.291C45.3836 118.185 48.5456 127.048 54.345 133.927C60.1321 140.791 68.5571 145.698 80.3084 145.698H80.3088C94.4682 145.708 106.097 136.163 111.985 126.088C114.771 121.32 116.237 116.49 116.111 112.558C114.751 112.303 113.445 111.861 112.246 111.309C110.653 110.575 109.234 109.64 108.107 108.671C106.987 107.708 106.127 106.686 105.689 105.765C105.47 105.306 105.338 104.832 105.366 104.385C105.395 103.914 105.602 103.497 106 103.206C106.377 102.931 106.885 102.797 107.482 102.77C108.085 102.743 108.822 102.824 109.7 103.018C112.02 103.533 113.786 104.624 115.013 106.163C116.21 107.664 116.867 109.556 117.058 111.673C118.915 111.909 120.833 111.746 122.666 110.985C126 109.602 129.175 106.189 131.189 99.2825C133.359 91.8398 133.021 85.6749 131.3 80.326C129.575 74.965 126.451 70.3925 122.997 66.1533C121.564 64.3955 120.081 62.7023 118.62 61.0335C118.318 60.6893 118.018 60.3461 117.719 60.0036C115.974 58.0049 114.283 56.0311 112.795 54.0344C109.822 50.0447 107.618 45.9097 107.417 41.2007C107.024 32.0038 109.025 26.3187 111.169 22.9165C112.24 21.2179 113.341 20.0978 114.183 19.3985C114.604 19.0491 114.96 18.805 115.214 18.6465C115.342 18.5672 115.444 18.5093 115.516 18.4703C115.552 18.4508 115.58 18.436 115.601 18.4256C115.611 18.4204 115.62 18.4163 115.626 18.4132L115.634 18.4095L115.638 18.4077C115.638 18.4075 115.638 18.4073 115.847 18.8719L115.638 18.4073L115.879 18.2945L116.105 18.4343L116.098 18.4457C116.105 18.4343 116.105 18.4343 116.105 18.4343L116.105 18.4347L116.108 18.4362L116.119 18.4431C116.129 18.4493 116.145 18.4587 116.165 18.4711C116.206 18.496 116.268 18.533 116.349 18.5811C116.511 18.6772 116.75 18.8173 117.058 18.9917C117.674 19.3405 118.563 19.8264 119.653 20.3727C121.836 21.4664 124.813 22.7971 128.008 23.7561C131.209 24.717 134.591 25.2931 137.596 24.9115C140.582 24.5321 143.176 23.2122 144.887 20.3817L144.888 20.3814C145.631 19.1545 145.846 18.046 145.687 17.0377C145.527 16.0211 144.978 15.0414 144.077 14.1008C142.261 12.2061 139.122 10.5782 135.404 9.25171C127.987 6.6054 118.548 5.25471 113.687 5.23446M116.037 111.502C115.831 109.655 115.237 108.061 114.239 106.809C113.173 105.473 111.617 104.489 109.488 104.017C108.661 103.834 108.014 103.77 107.525 103.792C107.031 103.814 106.74 103.921 106.58 104.038C106.441 104.14 106.374 104.267 106.363 104.45C106.35 104.655 106.41 104.946 106.587 105.318C106.94 106.06 107.686 106.974 108.749 107.889C109.806 108.797 111.147 109.681 112.656 110.376C113.72 110.867 114.86 111.26 116.037 111.502ZM45.41 101.491C48.3735 102.459 51.275 102.759 53.5923 102.508C54.9487 102.362 56.1357 102.023 57.0213 101.493C57.9095 100.961 58.542 100.202 58.6506 99.2212C58.7528 98.3227 58.5205 97.5366 58.028 96.9097C57.5433 96.2928 56.8316 95.8602 56.0134 95.5983C54.3815 95.0757 52.2183 95.194 50.1412 96.0153C48.2092 96.7793 46.3197 98.1635 44.9708 100.26C44.7273 100.171 44.4836 100.077 44.2398 99.9782C37.5624 97.273 30.9872 90.9224 31.0263 79.2503C31.0656 67.53 37.035 58.619 46.3478 54.0916C55.676 49.5567 68.408 49.4013 81.9491 55.3467C82.9877 55.8035 83.9441 55.8983 84.8055 55.6192C85.6629 55.3413 86.3529 54.7164 86.9072 53.8784C88.0018 52.2236 88.6578 49.5998 89.0587 46.5496C89.8149 40.7955 89.6962 33.2097 89.5964 26.8351C89.5899 26.4217 89.5835 26.0135 89.5775 25.6112C89.4604 17.7518 92.8466 12.6781 97.5577 9.55057C102.297 6.40424 108.404 5.21427 113.687 5.23446M45.9559 100.595C47.1665 98.8214 48.8125 97.6367 50.5011 96.9689C52.4119 96.2134 54.3401 96.1336 55.7152 96.5739C56.4006 96.7934 56.9213 97.1325 57.2496 97.5503C57.5697 97.9578 57.7307 98.469 57.6584 99.1036L57.6582 99.1055C57.5967 99.6626 57.2361 100.18 56.5168 100.611C55.7946 101.043 54.7592 101.354 53.4874 101.492C51.3829 101.719 48.7151 101.462 45.9559 100.595Z" fill="white"/>
<path fill-rule="evenodd" clip-rule="evenodd" d="M130.19 30.424H114.289V29.1973H130.19V30.424Z" fill="#3FB1B5"/>
<path fill-rule="evenodd" clip-rule="evenodd" d="M135.085 25.1086C133.053 25.1086 131.169 27.3375 131.169 30.4245C131.169 33.5116 133.053 35.7405 135.085 35.7405C137.117 35.7405 139 33.5116 139 30.4245C139 27.3375 137.117 25.1086 135.085 25.1086ZM129.971 30.4245C129.971 26.9623 132.13 23.8818 135.085 23.8818C138.04 23.8818 140.199 26.9622 140.199 30.4245C140.199 33.8868 138.04 36.9672 135.085 36.9672C132.13 36.9672 129.971 33.8868 129.971 30.4245Z" fill="#3FB1B5"/>
<path fill-rule="evenodd" clip-rule="evenodd" d="M110.433 1.22675C108.228 1.22675 106.457 3.05632 106.457 5.29549V22.5109H105.259V5.29549C105.259 2.3823 107.563 0 110.433 0H115.427C118.273 0 120.601 2.35837 120.601 5.29549H119.402C119.402 3.03936 117.615 1.22675 115.427 1.22675H110.433Z" fill="#66B0F0"/>
<path d="M110.673 41.4641H101.064C98.607 41.4641 96.6094 39.4195 96.6094 36.9047V27.0702C96.6094 24.5553 98.607 22.5107 101.064 22.5107H110.673C113.13 22.5107 115.128 24.5553 115.128 27.0702V36.9047C115.108 39.4195 113.13 41.4641 110.673 41.4641Z" fill="white"/>
<path fill-rule="evenodd" clip-rule="evenodd" d="M101.064 23.1242C98.9377 23.1242 97.2084 24.8942 97.2084 27.0703V36.9047C97.2084 39.0808 98.9377 40.8508 101.064 40.8508H110.673C112.793 40.8508 114.509 39.0856 114.528 36.9021V27.0703C114.528 24.8942 112.799 23.1242 110.673 23.1242H101.064ZM96.0098 27.0703C96.0098 24.2167 98.2757 21.8975 101.064 21.8975H110.673C113.461 21.8975 115.727 24.2167 115.727 27.0703V36.9072L115.727 36.9097C115.704 39.7549 113.465 42.0775 110.673 42.0775H101.064C98.2757 42.0775 96.0098 39.7583 96.0098 36.9047V27.0703Z" fill="#66B0F0"/>
<path d="M108.176 38.2137H103.481C101.464 38.2137 99.8057 36.5371 99.8057 34.4516V29.6468C99.8057 27.5818 101.444 25.8848 103.481 25.8848H108.176C110.193 25.8848 111.852 27.5613 111.852 29.6468V34.4516C111.852 36.5371 110.213 38.2137 108.176 38.2137Z" fill="white"/>
<path fill-rule="evenodd" clip-rule="evenodd" d="M103.482 26.4982C101.778 26.4982 100.406 27.9185 100.406 29.6469V34.4517C100.406 36.1962 101.793 37.6004 103.482 37.6004H108.177C109.883 37.6004 111.253 36.1984 111.253 34.4517V29.6469C111.253 27.9024 109.865 26.4982 108.177 26.4982H103.482ZM99.207 29.6469C99.207 27.2453 101.111 25.2715 103.482 25.2715H108.177C110.523 25.2715 112.452 27.2205 112.452 29.6469V34.4517C112.452 36.8759 110.545 38.8271 108.177 38.8271H103.482C101.136 38.8271 99.207 36.8781 99.207 34.4517V29.6469Z" fill="#66B0F0"/>
<path fill-rule="evenodd" clip-rule="evenodd" d="M101.204 37.3747L109.554 26.0068L110.512 26.744L102.162 38.1119L101.204 37.3747Z" fill="#66B0F0"/>
<path fill-rule="evenodd" clip-rule="evenodd" d="M99.5674 35.4302L106.799 25.6162L107.756 26.3549L100.524 36.1688L99.5674 35.4302Z" fill="#66B0F0"/>
<path fill-rule="evenodd" clip-rule="evenodd" d="M103.94 37.8434L111.172 28.0293L112.129 28.768L104.897 38.582L103.94 37.8434Z" fill="#66B0F0"/>
<path fill-rule="evenodd" clip-rule="evenodd" d="M106.839 37.8437L111.374 31.6895L112.331 32.4281L107.796 38.5823L106.839 37.8437Z" fill="#66B0F0"/>
<path fill-rule="evenodd" clip-rule="evenodd" d="M99.3477 31.7295L103.862 25.6162L104.818 26.3559L100.304 32.4692L99.3477 31.7295Z" fill="#66B0F0"/>
<path fill-rule="evenodd" clip-rule="evenodd" d="M98.1471 325.803V314.843H99.3457V325.803C99.3457 331.424 94.7625 335.988 89.1177 335.988H64.4268V334.794H89.1177C94.1005 334.794 98.1471 330.765 98.1471 325.803Z" fill="#66B0F0"/>
<path fill-rule="evenodd" clip-rule="evenodd" d="M107.358 415.517V314.963H108.557V415.517H107.358Z" fill="#66B0F0"/>
<path fill-rule="evenodd" clip-rule="evenodd" d="M102.903 416.113C81.2206 416.113 63.849 430.395 63.849 447.762H62.6504C62.6504 429.521 80.797 414.92 102.903 414.92H112.851C134.957 414.92 153.104 429.521 153.104 447.762H151.905C151.905 430.395 134.534 416.113 112.851 416.113H102.903Z" fill="#66B0F0"/>
<path d="M204.022 316.494H58.9922C51.7208 316.494 45.8477 310.626 45.8477 303.405H207.458L204.022 316.494Z" fill="#FFCF2D"/>
<path d="M62.3705 469.085C68.2841 469.085 73.078 464.311 73.078 458.423C73.078 452.534 68.2841 447.761 62.3705 447.761C56.457 447.761 51.6631 452.534 51.6631 458.423C51.6631 464.311 56.457 469.085 62.3705 469.085Z" fill="#FFCF2D"/>
<path d="M56.9155 338.117H78.4103C80.1682 338.117 81.5865 336.705 81.5865 334.954V334.715C81.5865 332.965 80.1682 331.553 78.4103 331.553H56.9155C55.1576 331.553 53.7393 332.965 53.7393 334.715V334.954C53.7393 336.705 55.1576 338.117 56.9155 338.117Z" fill="#FFCF2D"/>
<path fill-rule="evenodd" clip-rule="evenodd" d="M12.044 211.286C9.38832 203.857 14.9108 196.048 22.8366 196.048H98.4877C105.853 196.048 112.411 200.663 114.893 207.563L114.894 207.564L149.599 304.4H45.4272L12.044 211.286ZM13.1731 210.886C10.7952 204.232 15.7404 197.241 22.8366 197.241H98.4877C105.345 197.241 111.453 201.538 113.765 207.966L147.898 303.206H46.272L13.1732 210.886C13.1732 210.886 13.1731 210.886 13.1731 210.886Z" fill="#FFCF2D"/>
<path fill-rule="evenodd" clip-rule="evenodd" d="M15.2461 199.608H91.836C98.9618 199.608 105.3 204.064 107.702 210.746L107.703 210.746L141.249 304.4H50.9441V303.206H139.549L106.574 211.148C104.342 204.94 98.4541 200.802 91.836 200.802H15.2461V199.608Z" fill="#FFCF2D"/>
<path d="M152.325 469.085C158.238 469.085 163.032 464.311 163.032 458.423C163.032 452.534 158.238 447.761 152.325 447.761C146.411 447.761 141.617 452.534 141.617 458.423C141.617 464.311 146.411 469.085 152.325 469.085Z" fill="#FFCF2D"/>
</svg>
